<svg id="svg" xmlns="http://www.w3.org/2000/svg" xmlns:xlink="http://www.w3.org/1999/xlink" width="400" height="400" viewBox="0, 0, 400,400"><g id="svgg"><path id="path0" d="M65.635 43.854 C 58.404 47.446,53.250 53.132,51.005 59.997 C 48.853 66.574,50.230 80.140,53.385 83.444 C 53.880 83.963,54.286 84.682,54.286 85.041 C 54.286 85.400,55.714 87.082,57.460 88.778 C 69.469 100.450,91.330 98.542,100.049 85.061 L 101.165 83.336 174.332 93.132 C 214.575 98.519,248.223 103.078,249.107 103.263 C 249.991 103.447,250.714 103.299,250.714 102.934 C 250.714 102.568,251.229 98.523,251.859 93.946 C 252.488 89.368,252.849 85.468,252.661 85.280 C 252.472 85.091,220.216 80.619,180.981 75.342 C 97.311 64.087,104.286 65.129,104.286 63.891 C 104.286 57.166,96.261 47.263,87.654 43.366 C 83.308 41.399,69.985 41.694,65.635 43.854 M301.350 77.425 C 291.083 82.525,285.714 90.837,285.714 101.635 L 285.714 106.792 245.365 126.963 L 205.015 147.134 206.434 149.460 C 207.214 150.739,207.853 152.355,207.854 153.052 C 207.856 153.748,209.143 155.712,210.714 157.417 C 212.286 159.122,213.571 160.864,213.571 161.288 C 213.571 163.258,217.266 161.625,254.617 143.147 C 290.396 125.447,294.529 123.568,295.598 124.517 C 302.159 130.344,317.076 131.860,325.341 127.539 C 329.249 125.496,335.714 119.932,335.714 118.612 C 335.714 118.253,336.120 117.534,336.615 117.015 C 341.824 111.560,341.081 94.490,335.282 86.419 C 328.203 76.566,311.821 72.224,301.350 77.425 M74.464 127.669 C 72.402 127.814,70.717 128.156,70.720 128.430 C 70.723 128.704,71.838 165.537,73.199 210.281 C 75.636 290.429,75.664 292.857,74.161 292.857 C 70.734 292.857,62.308 302.402,60.291 308.568 C 58.139 315.146,59.516 328.712,62.670 332.015 C 63.166 332.534,63.571 333.253,63.571 333.612 C 63.571 334.931,70.035 340.495,73.941 342.539 C 79.991 345.704,92.866 345.704,98.916 342.539 C 102.822 340.495,109.286 334.931,109.286 333.612 C 109.286 333.253,109.691 332.534,110.187 332.015 C 113.341 328.712,114.718 315.146,112.567 308.568 C 110.302 301.643,104.352 295.289,97.039 291.985 L 94.435 290.809 93.992 282.011 C 93.749 277.173,92.756 245.571,91.785 211.786 C 90.815 178.000,89.812 145.134,89.558 138.750 L 89.095 127.143 83.655 127.275 C 80.662 127.348,76.527 127.525,74.464 127.669 M152.064 148.854 C 144.832 152.446,139.679 158.132,137.433 164.997 C 135.282 171.574,136.659 185.140,139.813 188.444 C 140.309 188.963,140.714 189.682,140.714 190.041 C 140.714 191.358,147.177 196.923,151.081 198.967 C 154.856 200.943,155.603 201.071,163.355 201.071 L 171.609 201.071 209.349 248.997 C 230.106 275.356,247.519 297.280,248.045 297.717 C 249.247 298.714,263.130 288.170,262.562 286.691 C 262.366 286.180,245.434 264.457,224.935 238.417 C 204.435 212.377,187.374 190.704,187.021 190.254 C 186.624 189.749,186.733 189.067,187.305 188.469 C 192.539 182.994,191.810 165.939,185.996 157.848 C 178.918 147.995,162.536 143.652,152.064 148.854 M277.064 306.711 C 271.121 309.663,263.571 317.099,263.571 320.002 C 263.571 321.134,261.997 321.012,198.952 315.006 C 165.997 311.867,138.866 309.468,138.659 309.674 C 138.335 309.998,136.434 327.319,136.691 327.605 C 136.743 327.663,164.941 330.382,199.353 333.649 L 261.920 339.588 262.825 342.651 C 263.322 344.336,263.993 345.714,264.316 345.714 C 264.639 345.714,265.115 346.381,265.374 347.195 C 268.460 356.920,289.846 362.691,301.059 356.824 C 304.965 354.781,311.429 349.217,311.429 347.898 C 311.429 347.539,311.834 346.820,312.330 346.301 C 317.539 340.845,316.795 323.776,310.996 315.705 C 303.918 305.852,287.536 301.510,277.064 306.711 " stroke="none" fill="#000000" fill-rule="evenodd"></path></g></svg>