<svg id="svg" xmlns="http://www.w3.org/2000/svg" xmlns:xlink="http://www.w3.org/1999/xlink" width="400" height="400" viewBox="0, 0, 400,400"><g id="svgg"><path id="path0" d="M53.948 120.622 C 52.372 121.306,51.218 122.522,50.386 124.375 C 49.635 126.047,49.483 273.403,50.230 275.382 C 50.762 276.789,52.479 278.651,53.959 279.424 C 54.892 279.911,63.378 280.000,109.093 280.000 L 163.125 280.000 164.993 278.763 C 168.193 276.643,168.163 276.854,168.163 256.522 L 168.163 238.776 180.361 238.776 L 192.559 238.776 192.729 245.612 C 192.933 253.770,193.506 255.280,197.102 257.139 C 200.436 258.862,202.579 257.881,210.612 250.953 C 214.092 247.952,222.357 240.843,228.980 235.154 C 244.596 221.740,245.069 221.283,245.717 218.971 C 246.957 214.543,247.446 215.081,223.537 194.557 C 201.962 176.035,202.877 176.735,200.218 176.735 C 194.424 176.735,192.659 179.712,192.655 189.490 L 192.653 195.510 180.408 195.510 L 168.163 195.510 168.163 181.251 C 168.163 172.332,168.003 166.562,167.736 165.843 C 167.167 164.309,124.262 121.311,122.564 120.572 C 120.578 119.707,55.946 119.754,53.948 120.622 M236.122 120.607 C 231.596 122.733,231.840 120.935,231.838 152.209 L 231.837 179.316 232.851 181.047 C 235.040 184.782,240.462 185.628,243.625 182.728 C 246.129 180.433,246.104 180.699,246.113 156.429 L 246.122 134.286 270.379 134.286 L 294.635 134.286 294.678 152.291 C 294.739 177.845,292.395 175.510,317.986 175.510 L 335.918 175.510 335.918 220.612 L 335.918 265.714 291.020 265.714 L 246.122 265.714 246.113 260.714 C 246.099 252.677,243.430 249.174,237.887 249.917 C 232.735 250.608,231.837 252.823,231.837 264.836 C 231.837 276.474,232.174 277.596,236.211 279.410 C 238.003 280.215,344.575 280.278,345.952 279.475 C 347.792 278.403,349.015 277.159,349.596 275.767 C 350.552 273.479,350.511 167.513,349.553 165.592 C 348.654 163.791,306.689 121.767,304.812 120.789 C 302.799 119.740,238.332 119.569,236.122 120.607 M112.653 152.258 C 112.653 172.236,112.633 172.070,115.333 174.130 L 116.874 175.306 135.376 175.420 L 153.878 175.534 153.878 220.624 L 153.878 265.714 108.980 265.714 L 64.082 265.714 64.082 200.000 L 64.082 134.286 88.367 134.286 L 112.653 134.286 112.653 152.258 M135.306 153.061 L 143.462 161.224 135.200 161.224 L 126.939 161.224 126.939 153.061 C 126.939 148.571,126.986 144.898,127.045 144.898 C 127.103 144.898,130.821 148.571,135.306 153.061 M317.347 153.061 L 325.503 161.224 317.241 161.224 L 308.980 161.224 308.980 153.061 C 308.980 148.571,309.027 144.898,309.085 144.898 C 309.144 144.898,312.861 148.571,317.347 153.061 M84.065 199.715 C 78.547 202.633,79.543 210.871,85.631 212.670 C 88.635 213.558,112.591 213.013,114.284 212.019 C 119.191 209.137,118.781 201.495,113.604 199.332 C 110.968 198.231,86.266 198.552,84.065 199.715 M211.922 203.360 C 213.334 204.596,217.429 208.137,221.020 211.228 C 224.612 214.319,227.601 216.973,227.662 217.125 C 227.796 217.459,207.887 234.533,207.530 234.390 C 207.392 234.335,207.218 233.281,207.143 232.048 C 206.952 228.918,205.587 226.571,203.281 225.408 C 201.481 224.501,201.265 224.490,184.811 224.490 L 168.163 224.490 168.163 217.143 L 168.163 209.796 184.871 209.796 C 195.715 209.796,201.983 209.643,202.729 209.361 C 205.439 208.334,206.963 205.907,207.177 202.278 C 207.257 200.913,207.329 199.737,207.335 199.664 C 207.352 199.473,208.991 200.794,211.922 203.360 M85.102 231.863 C 79.513 233.508,78.831 242.006,84.065 244.774 L 85.843 245.714 108.980 245.714 L 132.117 245.714 133.894 244.774 C 139.100 242.021,138.500 233.966,132.933 231.863 C 131.514 231.327,86.923 231.327,85.102 231.863 " stroke="none" fill="#000000" fill-rule="evenodd"></path></g></svg>