<svg id="svg" xmlns="http://www.w3.org/2000/svg" xmlns:xlink="http://www.w3.org/1999/xlink" width="400" height="405.3811659192825" viewBox="0, 0, 400,405.3811659192825"><g id="svgg"><path id="path0" d="M171.300 17.040 C 31.333 42.540,-32.234 203.379,52.933 316.539 C 121.199 407.243,253.636 415.875,334.193 334.870 C 352.605 316.356,378.283 274.933,373.772 271.022 C 371.897 269.396,333.296 254.313,332.965 255.077 C 279.597 378.009,107.084 372.656,67.169 246.831 C 24.157 111.245,181.731 4.234,292.501 93.803 C 305.966 104.691,307.072 102.708,278.854 118.275 C 265.551 125.614,255.282 132.205,256.033 132.922 C 258.429 135.209,380.463 208.072,381.898 208.072 C 383.309 208.072,386.337 61.075,384.955 59.693 C 384.535 59.273,375.538 63.832,364.963 69.823 C 342.035 82.815,346.922 82.818,333.623 69.804 C 290.108 27.225,227.358 6.827,171.300 17.040 " stroke="none" fill="#000000" fill-rule="evenodd"></path></g></svg>