<svg id="svg" xmlns="http://www.w3.org/2000/svg" xmlns:xlink="http://www.w3.org/1999/xlink" width="400" height="400" viewBox="0, 0, 400,400"><g id="svgg"><path id="path0" d="M65.635 43.854 C 58.404 47.446,53.250 53.132,51.005 59.997 C 48.853 66.574,50.230 80.140,53.385 83.444 C 53.880 83.963,54.286 84.682,54.286 85.041 C 54.286 85.400,55.714 87.082,57.460 88.778 C 69.469 100.450,91.330 98.542,100.049 85.061 L 101.165 83.336 174.332 93.132 C 214.575 98.519,248.223 103.078,249.107 103.263 C 249.991 103.447,250.714 103.299,250.714 102.934 C 250.714 102.568,251.229 98.523,251.859 93.946 C 252.488 89.368,252.849 85.468,252.661 85.280 C 252.472 85.091,220.216 80.619,180.981 75.342 C 97.311 64.087,104.286 65.129,104.286 63.891 C 104.286 57.166,96.261 47.263,87.654 43.366 C 83.308 41.399,69.985 41.694,65.635 43.854 M301.350 77.425 C 291.083 82.525,285.714 90.837,285.714 101.635 L 285.714 106.792 245.365 126.963 L 205.015 147.134 206.434 149.460 C 207.214 150.739,207.853 152.355,207.854 153.052 C 207.856 153.748,209.143 155.712,210.714 157.417 C 212.286 159.122,213.571 160.864,213.571 161.288 C 213.571 163.258,217.266 161.625,254.617 143.147 C 290.396 125.447,294.529 123.568,295.598 124.517 C 302.159 130.344,317.076 131.860,325.341 127.539 C 329.249 125.496,335.714 119.932,335.714 118.612 C 335.714 118.253,336.120 117.534,336.615 117.015 C 341.824 111.560,341.081 94.490,335.282 86.419 C 328.203 76.566,311.821 72.224,301.350 77.425 M74.464 127.669 C 72.402 127.814,70.717 128.156,70.720 128.430 C 70.723 128.704,71.838 165.537,73.199 210.281 C 75.636 290.429,75.664 292.857,74.161 292.857 C 70.734 292.857,62.308 302.402,60.291 308.568 C 58.139 315.146,59.516 328.712,62.670 332.015 C 63.166 332.534,63.571 333.253,63.571 333.612 C 63.571 334.931,70.035 340.495,73.941 342.539 C 79.991 345.704,92.866 345.704,98.916 342.539 C 102.822 340.495,109.286 334.931,109.286 333.612 C 109.286 333.253,109.691 332.534,110.187 332.015 C 113.341 328.712,114.718 315.146,112.567 308.568 C 110.302 301.643,104.352 295.289,97.039 291.985 L 94.435 290.809 93.992 282.011 C 93.749 277.173,92.756 245.571,91.785 211.786 C 90.815 178.000,89.812 145.134,89.558 138.750 L 89.095 127.143 83.655 127.275 C 80.662 127.348,76.527 127.525,74.464 127.669 M152.064 148.854 C 144.832 152.446,139.679 158.132,137.433 164.997 C 135.282 171.574,136.659 185.140,139.813 188.444 C 140.309 188.963,140.714 189.682,140.714 190.041 C 140.714 191.271,146.988 196.785,150.816 198.919 C 154.404 200.919,155.179 201.062,163.214 201.212 L 171.786 201.372 189.904 224.320 L 208.022 247.268 210.241 244.527 C 211.461 243.019,214.318 239.829,216.589 237.438 L 220.718 233.089 204.188 212.080 C 195.097 200.525,187.371 190.704,187.019 190.254 C 186.625 189.751,186.734 189.066,187.305 188.469 C 192.539 182.994,191.810 165.939,185.996 157.848 C 178.918 147.995,162.536 143.652,152.064 148.854 M271.786 233.749 C 223.833 239.073,197.333 293.385,222.208 335.357 C 250.749 383.513,323.163 377.093,343.068 324.643 C 361.026 277.323,322.442 228.124,271.786 233.749 M268.375 269.267 C 269.750 270.106,272.891 273.992,276.164 278.907 C 279.181 283.437,281.840 287.137,282.075 287.129 C 282.309 287.122,285.061 283.226,288.191 278.473 C 294.954 268.201,295.746 267.564,301.198 268.016 C 304.727 268.309,305.535 268.679,307.618 270.951 C 311.710 275.416,310.779 278.033,300.621 290.616 L 292.916 300.160 297.214 306.330 C 299.578 309.723,303.567 315.427,306.079 319.003 L 310.646 325.507 309.381 327.932 C 307.558 331.428,302.468 333.870,298.413 333.195 C 294.499 332.542,291.814 329.760,285.820 320.143 C 283.324 316.139,281.050 313.007,280.767 313.182 C 280.483 313.357,277.256 318.017,273.595 323.536 C 266.246 334.617,266.260 334.607,259.699 332.786 C 249.755 330.025,250.356 324.207,262.153 309.010 C 266.674 303.186,269.077 299.513,268.695 299.010 C 268.363 298.572,264.480 293.145,260.067 286.950 L 252.044 275.686 253.592 273.181 C 256.609 268.300,263.707 266.421,268.375 269.267 M138.509 309.413 C 138.360 309.968,136.607 327.511,136.691 327.604 C 136.848 327.775,196.058 333.378,196.243 333.238 C 196.338 333.167,195.634 330.722,194.679 327.804 C 193.724 324.887,192.584 320.673,192.145 318.439 L 191.347 314.378 187.638 313.954 C 185.598 313.720,175.411 312.742,165.000 311.779 C 154.589 310.816,144.384 309.838,142.321 309.606 C 140.259 309.373,138.544 309.286,138.509 309.413 " stroke="none" fill="#000000" fill-rule="evenodd"></path></g></svg>