<svg id="svg" xmlns="http://www.w3.org/2000/svg" xmlns:xlink="http://www.w3.org/1999/xlink" width="400" height="400" viewBox="0, 0, 400,400"><g id="svgg"><path id="path0" d="M37.840 51.477 C 33.176 53.595,29.277 57.348,27.006 61.907 L 25.000 65.932 25.000 200.000 L 25.000 334.068 27.006 338.093 C 29.277 342.652,33.176 346.405,37.840 348.523 C 42.765 350.760,357.203 350.778,362.109 348.541 C 366.523 346.529,370.000 343.388,372.476 339.175 L 374.609 335.547 374.609 200.000 L 374.609 64.453 372.476 60.825 C 370.000 56.612,366.523 53.471,362.109 51.459 C 357.203 49.222,42.765 49.240,37.840 51.477 M344.323 76.771 C 349.572 79.640,349.245 72.175,349.026 184.294 L 348.828 285.842 310.156 244.106 C 260.903 190.950,264.806 193.094,246.094 208.919 C 226.941 225.117,229.315 225.991,196.484 190.667 C 169.417 161.544,167.382 160.074,157.565 162.546 C 151.871 163.979,150.317 165.708,98.828 227.898 L 50.391 286.402 50.179 185.975 C 49.947 75.632,49.735 80.870,54.563 77.432 C 57.806 75.123,52.607 75.199,201.172 75.298 C 334.038 75.385,341.936 75.467,344.323 76.771 M275.595 101.517 C 249.640 109.814,241.187 143.338,259.983 163.433 C 279.614 184.420,315.745 175.955,323.761 148.491 C 332.285 119.289,304.566 92.256,275.595 101.517 " stroke="none" fill="#000000" fill-rule="evenodd"></path></g></svg>