<svg id="svg" xmlns="http://www.w3.org/2000/svg" xmlns:xlink="http://www.w3.org/1999/xlink" width="400" height="400" viewBox="0, 0, 400,400"><g id="svgg"><path id="path0" d="M51.739 57.065 C 47.475 59.001,43.911 62.433,41.834 66.601 L 40.000 70.280 40.000 192.857 L 40.000 315.434 41.834 319.114 C 43.911 323.282,47.475 326.713,51.739 328.650 C 56.146 330.651,243.310 330.750,242.509 328.750 C 227.481 291.225,246.517 243.039,283.821 224.176 C 289.415 221.348,289.425 221.338,288.107 219.823 C 260.531 188.131,258.403 187.260,242.143 201.012 C 224.631 215.821,226.802 216.620,196.786 184.324 C 172.039 157.698,170.177 156.353,161.202 158.613 C 155.996 159.924,154.576 161.504,107.500 218.364 L 63.214 271.854 63.021 180.034 C 62.807 78.319,62.559 83.982,67.377 80.545 L 69.643 78.929 199.643 78.929 C 322.579 78.929,329.768 78.997,331.952 80.191 C 336.672 82.770,336.429 78.937,336.429 150.701 C 336.429 202.139,336.615 215.811,337.321 216.008 C 337.813 216.144,340.625 216.786,343.571 217.433 C 346.518 218.080,351.425 219.695,354.477 221.021 L 360.025 223.433 359.834 146.181 L 359.643 68.929 357.693 65.611 C 355.428 61.759,352.250 58.888,348.214 57.048 C 343.728 55.003,56.242 55.019,51.739 57.065 M269.116 102.816 C 245.385 110.402,237.657 141.052,254.842 159.424 C 272.790 178.612,305.824 170.873,313.153 145.763 C 320.947 119.064,295.603 94.348,269.116 102.816 M311.160 237.941 C 256.093 247.706,241.029 320.886,287.741 351.702 C 329.781 379.435,385.126 349.849,385.126 299.643 C 385.126 260.316,350.040 231.047,311.160 237.941 M309.580 265.285 C 311.421 266.054,312.419 267.245,313.920 270.463 C 316.922 276.901,323.045 287.857,323.641 287.857 C 324.436 287.857,334.330 274.281,335.436 271.673 C 338.093 265.408,346.142 264.585,348.854 270.301 C 350.913 274.640,349.203 278.227,337.648 293.805 L 331.912 301.538 339.909 313.301 C 349.846 327.918,350.634 331.656,344.331 334.267 C 338.921 336.508,336.393 334.476,327.190 320.485 C 324.673 316.659,322.397 313.779,322.131 314.086 C 320.055 316.480,312.724 326.715,311.160 329.403 C 307.804 335.172,302.827 336.765,299.062 333.275 C 294.292 328.855,296.386 323.462,309.468 306.480 L 314.106 300.460 311.789 296.837 C 299.214 277.169,296.943 268.308,303.723 265.362 C 306.672 264.081,306.697 264.080,309.580 265.285 " stroke="none" fill="#000000" fill-rule="evenodd"></path></g></svg>