<svg id="svg" xmlns="http://www.w3.org/2000/svg" xmlns:xlink="http://www.w3.org/1999/xlink" width="400" height="400" viewBox="0, 0, 400,400"><g id="svgg"><path id="path0" d="M68.000 55.707 C 51.715 56.045,50.985 56.196,46.467 60.163 C 39.501 66.279,40.000 56.032,40.000 193.082 C 40.000 333.260,39.238 320.131,47.748 326.622 L 51.466 329.457 83.983 330.275 C 116.586 331.095,236.474 330.358,240.810 329.311 C 242.481 328.907,242.926 328.304,242.419 327.127 C 237.030 314.608,236.907 290.477,242.154 275.285 C 249.795 253.168,263.738 236.142,283.250 225.106 C 290.686 220.900,290.876 221.488,277.544 207.386 C 261.381 190.288,257.053 188.821,246.653 196.918 C 223.039 215.303,229.310 217.786,186.904 173.254 C 161.912 147.010,170.362 141.199,87.082 241.893 C 74.753 256.801,64.570 268.886,64.454 268.749 C 63.780 267.955,62.926 107.294,63.541 97.004 C 64.247 85.173,64.420 84.426,67.083 81.763 L 69.882 78.964 190.191 78.993 C 319.126 79.025,329.859 79.255,333.327 82.063 L 335.500 83.822 335.762 148.161 C 336.069 223.428,335.360 216.319,342.728 217.947 C 345.903 218.649,351.087 220.266,354.250 221.541 L 360.000 223.860 360.000 146.380 C 360.000 62.104,360.283 66.373,354.339 60.872 C 348.259 55.245,356.999 55.579,214.000 55.500 C 141.125 55.459,75.425 55.553,68.000 55.707 M270.000 101.935 C 249.330 108.246,239.210 131.766,248.792 151.229 C 261.313 176.664,297.544 177.011,311.027 151.826 C 325.034 125.660,298.396 93.266,270.000 101.935 M304.926 238.895 C 253.619 252.745,243.197 324.604,288.396 352.874 C 330.821 379.410,385.072 349.790,385.238 300.000 C 385.379 257.645,346.120 227.775,304.926 238.895 M358.487 267.978 C 358.819 268.516,354.061 275.154,347.913 282.728 C 336.153 297.216,328.605 307.975,320.431 321.900 C 314.773 331.538,307.893 339.670,306.252 338.656 C 305.640 338.277,302.929 333.363,300.229 327.734 C 297.326 321.685,293.413 315.395,290.659 312.353 C 285.583 306.746,284.963 304.625,287.934 303.035 C 293.779 299.907,302.325 304.460,307.933 313.690 C 308.940 315.348,309.263 315.210,311.766 312.047 C 313.270 310.148,316.662 305.873,319.305 302.547 C 333.046 285.252,356.418 264.631,358.487 267.978 " stroke="none" fill="#000000" fill-rule="evenodd"></path></g></svg>