<svg id="svg" xmlns="http://www.w3.org/2000/svg" xmlns:xlink="http://www.w3.org/1999/xlink" width="400" height="400" viewBox="0, 0, 400,400"><g id="svgg"><path id="path0" d="M40.000 73.200 L 40.000 84.000 200.000 84.000 L 360.000 84.000 360.000 73.200 L 360.000 62.400 200.000 62.400 L 40.000 62.400 40.000 73.200 M59.200 146.771 L 59.200 202.342 62.170 204.361 C 65.745 206.790,65.425 207.106,69.407 197.200 C 75.987 180.831,83.314 157.080,86.437 142.000 C 88.005 134.423,88.236 138.222,86.810 148.160 C 83.785 169.250,78.381 189.520,70.822 208.131 C 70.284 209.456,78.903 214.400,81.753 214.400 C 83.809 214.400,114.849 181.533,117.932 176.092 C 118.334 175.381,118.905 174.620,119.201 174.400 C 120.144 173.699,129.005 161.467,134.269 153.600 C 140.576 144.174,140.813 143.946,137.603 150.400 C 128.317 169.069,112.768 190.622,95.491 208.778 C 88.071 216.575,87.917 217.126,92.943 217.930 C 94.800 218.227,96.744 218.821,97.261 219.251 C 98.618 220.377,113.318 211.860,125.600 202.834 C 128.019 201.055,130.359 199.339,130.800 199.021 C 163.200 175.565,191.575 133.285,198.834 97.645 C 199.433 94.707,201.600 95.973,201.600 99.262 C 201.600 103.594,210.014 125.633,216.237 137.600 C 227.648 159.545,249.209 184.548,269.200 199.021 C 269.641 199.339,271.981 201.055,274.400 202.834 C 287.421 212.403,301.160 220.255,303.040 219.200 C 303.788 218.780,305.930 218.055,307.800 217.588 C 312.144 216.503,312.331 216.998,304.444 208.710 C 286.532 189.887,269.702 166.347,261.470 148.600 C 259.459 144.266,260.143 144.898,263.632 150.600 C 265.315 153.350,266.932 155.780,267.226 156.000 C 267.520 156.220,268.768 158.020,270.000 160.000 C 271.232 161.980,272.457 163.780,272.724 164.000 C 272.990 164.220,275.758 167.820,278.875 172.000 C 286.701 182.494,293.303 189.987,307.951 205.000 C 312.996 210.170,317.565 214.400,318.106 214.400 C 320.915 214.400,329.705 209.430,329.181 208.139 C 321.614 189.503,316.216 169.255,313.190 148.160 C 311.764 138.222,311.995 134.423,313.563 142.000 C 317.293 160.014,330.969 202.013,334.334 205.790 C 334.623 206.114,336.196 205.471,337.830 204.361 L 340.800 202.342 340.800 146.771 L 340.800 91.200 200.000 91.200 L 59.200 91.200 59.200 146.771 M59.200 216.020 C 59.200 227.065,58.435 226.058,68.616 228.424 C 84.615 232.142,95.200 230.678,95.200 224.747 C 95.200 221.871,94.298 221.276,86.800 219.202 C 79.295 217.126,70.944 213.420,64.539 209.323 C 62.026 207.716,59.796 206.400,59.584 206.400 C 59.373 206.400,59.200 210.729,59.200 216.020 M336.855 208.417 C 335.345 209.484,332.105 211.326,329.655 212.511 C 327.205 213.697,324.213 215.165,323.007 215.774 C 320.677 216.951,313.191 219.445,309.204 220.372 C 304.450 221.477,303.255 225.240,306.538 228.764 C 309.205 231.627,328.827 230.192,338.784 226.406 C 340.784 225.646,340.800 225.565,340.800 216.020 C 340.800 205.531,340.838 205.604,336.855 208.417 M59.780 230.087 C 59.009 230.858,59.029 315.993,59.800 316.024 C 65.986 316.276,105.834 316.033,106.125 315.742 C 107.987 313.879,106.960 278.817,104.796 270.400 C 104.400 268.860,103.337 264.685,102.432 261.123 C 100.814 254.750,96.637 242.482,94.082 236.600 L 92.779 233.600 86.298 233.600 L 79.818 233.600 80.299 236.200 C 82.236 246.679,82.491 250.109,82.031 259.536 C 81.494 270.539,80.068 276.230,80.024 267.541 C 79.996 261.861,78.038 248.071,76.417 242.136 C 73.544 231.617,74.167 232.475,68.613 231.391 C 65.856 230.853,62.871 230.209,61.980 229.960 C 61.088 229.711,60.098 229.768,59.780 230.087 M334.000 230.856 C 331.800 231.468,329.224 231.976,328.275 231.985 C 325.244 232.012,320.015 253.749,320.004 266.360 C 319.997 275.516,318.507 270.561,317.973 259.600 C 317.509 250.105,317.761 246.693,319.701 236.200 L 320.182 233.600 313.702 233.600 L 307.221 233.600 305.918 236.600 C 303.363 242.482,299.186 254.750,297.568 261.123 C 296.663 264.685,295.600 268.860,295.204 270.400 C 293.067 278.714,292.029 313.896,293.867 315.734 C 294.053 315.920,304.599 316.085,317.303 316.100 L 340.400 316.127 340.607 272.863 C 340.841 223.932,341.597 228.742,334.000 230.856 M40.000 329.600 L 40.000 337.600 200.000 337.600 L 360.000 337.600 360.000 329.600 L 360.000 321.600 200.000 321.600 L 40.000 321.600 40.000 329.600 " stroke="none" fill="#000000" fill-rule="evenodd"></path></g></svg>