<svg id="svg" xmlns="http://www.w3.org/2000/svg" xmlns:xlink="http://www.w3.org/1999/xlink" width="400" height="400" viewBox="0, 0, 400,400"><g id="svgg"><path id="path0" d="M193.137 66.878 C 181.845 69.773,173.507 78.961,171.864 90.323 C 171.536 92.590,171.262 111.724,171.255 132.843 L 171.242 171.242 132.516 171.246 C 90.706 171.250,88.224 171.414,81.699 174.618 C 60.986 184.789,61.105 215.796,81.894 225.524 C 88.424 228.580,91.094 228.750,132.516 228.754 L 171.242 228.758 171.242 268.008 C 171.242 311.741,171.340 312.933,175.534 320.037 C 188.801 342.508,223.207 336.283,228.091 310.529 C 228.498 308.382,228.758 291.765,228.758 267.885 L 228.758 228.758 267.885 228.758 C 291.765 228.758,308.382 228.498,310.529 228.091 C 337.239 223.026,342.510 186.510,318.251 174.593 C 311.872 171.459,308.967 171.269,267.188 171.255 L 228.821 171.242 228.626 129.902 L 228.431 88.562 226.916 84.811 C 221.350 71.027,206.894 63.352,193.137 66.878 " stroke="none" fill="#000000" fill-rule="evenodd"></path></g></svg>